<?xml version="1.0" encoding="utf-8"?>
<!-- Generator: Adobe Illustrator 24.0.1, SVG Export Plug-In . SVG Version: 6.00 Build 0)  -->
<svg version="1.1" id="Layer_1" xmlns="http://www.w3.org/2000/svg" xmlns:xlink="http://www.w3.org/1999/xlink" x="0px" y="0px"
	 viewBox="0 0 392.5 392.5" style="enable-background:new 0 0 392.5 392.5;" xml:space="preserve">
<style type="text/css">
	.st0{fill:#8A9A06;}
</style>
<g>
	<g>
		<path class="st0" d="M292.4,324.8H99.9c-6,0-10.9,4.8-10.9,10.9c0,6,4.8,10.9,10.9,10.9h192.6c6,0,10.9-4.8,10.9-10.9
			C303.3,329.7,298.5,324.8,292.4,324.8z"/>
	</g>
</g>
<g>
	<g>
		<path class="st0" d="M292.4,277H99.9c-6,0-10.9,4.8-10.9,10.9c0,6,4.8,10.9,10.9,10.9h192.6c6,0,10.9-4.8,10.9-10.9
			C303.3,281.9,298.5,277,292.4,277z"/>
	</g>
</g>
<g>
	<g>
		<path class="st0" d="M196.1,45.8c-25.9,0-47,21.1-47,47c0,25.9,21.1,46.9,47,46.9s47-21.1,47-47S222,45.8,196.1,45.8z
			 M196.1,117.9c-13.8,0-25.1-11.3-25.1-25.1s11.2-25.1,25.1-25.1s25.1,11.3,25.1,25.1C221.2,106.5,209.9,117.9,196.1,117.9z"/>
	</g>
</g>
<g>
	<g>
		<path class="st0" d="M258.5,163.4c-39.9-15.5-84.8-15.5-124.6,0c-13.1,5.1-21.8,18.1-21.8,32.4v44.3c-0.1,6,4.8,10.9,10.9,10.9
			h146.4c6,0,10.9-4.8,10.9-10.9v-44.3C280.3,181.5,271.6,168.5,258.5,163.4z M258.5,229.2H133.9v-33.4c0-5.3,3.2-10.2,7.9-12
			c34.8-13.5,74-13.5,108.9,0c4.7,1.9,7.9,6.7,7.9,12L258.5,229.2L258.5,229.2z"/>
	</g>
</g>
<g>
	<g>
		<path class="st0" d="M313.1,0H131.5c-8.4,0-16.3,3.2-22.2,9.2L57,61.4c-5.9,5.9-9.2,13.8-9.2,22.2V361c0,17.4,14.2,31.5,31.5,31.5
			h233.8c17.4,0,31.5-14.2,31.5-31.5V31.5C344.5,14.2,330.3,0,313.1,0z M112,37.2v27H85L112,37.2z M322.7,116.8h-40.6
			c-6,0-10.9,4.8-10.9,10.9c0,6,4.8,10.9,10.9,10.9h40.6v19.4h-14.9c-6,0-10.9,4.8-10.9,10.9c0,6,4.8,10.9,10.9,10.9h14.9V361
			c0,5.4-4.3,9.7-9.6,9.7H79.2c-5.3,0-9.6-4.3-9.6-9.6V86H123c6,0,10.9-4.8,10.9-10.9V21.7h179.2c5.3,0,9.6,4.3,9.6,9.6V116.8z"/>
	</g>
</g>
</svg>
